<svg height="2174" width="720" xmlns="http://www.w3.org/2000/svg">
<rect height="2174" fill="#555" width="720"></rect>
<text fill="#7f7" font-family="Courier New" font-size="12" xml:space="preserve">
<tspan x="10" y="26">19 megabytes installed</tspan>
<tspan x="10" y="42"></tspan>
<tspan x="10" y="58">node_modules</tspan>
<tspan x="10" y="74">└─┬ pubnub@4.8.0 </tspan>
<tspan x="10" y="90">  ├─┬ agentkeepalive@3.1.0 </tspan>
<tspan x="10" y="106">  │ └─┬ humanize-ms@1.2.0 </tspan>
<tspan x="10" y="122">  │   └── ms@0.7.3 </tspan>
<tspan x="10" y="138">  ├─┬ superagent@2.3.0 </tspan>
<tspan x="10" y="154">  │ ├── component-emitter@1.2.1 </tspan>
<tspan x="10" y="170">  │ ├── cookiejar@2.1.1 </tspan>
<tspan x="10" y="186">  │ ├── debug@2.6.4 </tspan>
<tspan x="10" y="202">  │ ├── extend@3.0.0 </tspan>
<tspan x="10" y="218">  │ ├─┬ form-data@1.0.0-rc4 </tspan>
<tspan x="10" y="234">  │ │ ├── async@1.5.2 </tspan>
<tspan x="10" y="250">  │ │ ├─┬ combined-stream@1.0.5 </tspan>
<tspan x="10" y="266">  │ │ │ └── delayed-stream@1.0.0 </tspan>
<tspan x="10" y="282">  │ │ └─┬ mime-types@2.1.15 </tspan>
<tspan x="10" y="298">  │ │   └── mime-db@1.27.0 </tspan>
<tspan x="10" y="314">  │ ├── formidable@1.1.1 </tspan>
<tspan x="10" y="330">  │ ├── methods@1.1.2 </tspan>
<tspan x="10" y="346">  │ ├── mime@1.3.4 </tspan>
<tspan x="10" y="362">  │ ├── qs@6.4.0 </tspan>
<tspan x="10" y="378">  │ └─┬ readable-stream@2.2.9 </tspan>
<tspan x="10" y="394">  │   ├── buffer-shims@1.0.0 </tspan>
<tspan x="10" y="410">  │   ├── core-util-is@1.0.2 </tspan>
<tspan x="10" y="426">  │   ├── inherits@2.0.3 </tspan>
<tspan x="10" y="442">  │   ├── isarray@1.0.0 </tspan>
<tspan x="10" y="458">  │   ├── process-nextick-args@1.0.7 </tspan>
<tspan x="10" y="474">  │   ├── string_decoder@1.0.0 </tspan>
<tspan x="10" y="490">  │   └── util-deprecate@1.0.2 </tspan>
<tspan x="10" y="506">  ├─┬ superagent-proxy@1.0.2 </tspan>
<tspan x="10" y="522">  │ └─┬ proxy-agent@2.0.0 </tspan>
<tspan x="10" y="538">  │   ├─┬ agent-base@2.0.1 </tspan>
<tspan x="10" y="554">  │   │ └── semver@5.0.3 </tspan>
<tspan x="10" y="570">  │   ├── http-proxy-agent@1.0.0 </tspan>
<tspan x="10" y="586">  │   ├── https-proxy-agent@1.0.0 </tspan>
<tspan x="10" y="602">  │   ├── lru-cache@2.6.5 </tspan>
<tspan x="10" y="618">  │   ├─┬ pac-proxy-agent@1.0.0 </tspan>
<tspan x="10" y="634">  │   │ ├─┬ get-uri@1.1.0 </tspan>
<tspan x="10" y="650">  │   │ │ ├── data-uri-to-buffer@0.0.4 </tspan>
<tspan x="10" y="666">  │   │ │ ├── file-uri-to-path@0.0.2 </tspan>
<tspan x="10" y="682">  │   │ │ └─┬ ftp@0.3.10 </tspan>
<tspan x="10" y="698">  │   │ │   ├─┬ readable-stream@1.1.14 </tspan>
<tspan x="10" y="714">  │   │ │   │ ├── isarray@0.0.1 </tspan>
<tspan x="10" y="730">  │   │ │   │ └── string_decoder@0.10.31 </tspan>
<tspan x="10" y="746">  │   │ │   └── xregexp@2.0.0 </tspan>
<tspan x="10" y="762">  │   │ ├─┬ pac-resolver@1.2.6 </tspan>
<tspan x="10" y="778">  │   │ │ ├── co@3.0.6 </tspan>
<tspan x="10" y="794">  │   │ │ ├─┬ degenerator@1.0.4 </tspan>
<tspan x="10" y="810">  │   │ │ │ ├── ast-types@0.9.11 </tspan>
<tspan x="10" y="826">  │   │ │ │ ├─┬ escodegen@1.8.1 </tspan>
<tspan x="10" y="842">  │   │ │ │ │ ├── esprima@2.7.3 </tspan>
<tspan x="10" y="858">  │   │ │ │ │ ├── estraverse@1.9.3 </tspan>
<tspan x="10" y="874">  │   │ │ │ │ ├── esutils@2.0.2 </tspan>
<tspan x="10" y="890">  │   │ │ │ │ ├─┬ optionator@0.8.2 </tspan>
<tspan x="10" y="906">  │   │ │ │ │ │ ├── deep-is@0.1.3 </tspan>
<tspan x="10" y="922">  │   │ │ │ │ │ ├── fast-levenshtein@2.0.6 </tspan>
<tspan x="10" y="938">  │   │ │ │ │ │ ├── levn@0.3.0 </tspan>
<tspan x="10" y="954">  │   │ │ │ │ │ ├── prelude-ls@1.1.2 </tspan>
<tspan x="10" y="970">  │   │ │ │ │ │ ├── type-check@0.3.2 </tspan>
<tspan x="10" y="986">  │   │ │ │ │ │ └── wordwrap@1.0.0 </tspan>
<tspan x="10" y="1002">  │   │ │ │ │ └─┬ source-map@0.2.0 </tspan>
<tspan x="10" y="1018">  │   │ │ │ │   └── amdefine@1.0.1 </tspan>
<tspan x="10" y="1034">  │   │ │ │ └── esprima@3.1.3 </tspan>
<tspan x="10" y="1050">  │   │ │ ├── netmask@1.0.6 </tspan>
<tspan x="10" y="1066">  │   │ │ ├─┬ regenerator@0.8.46 </tspan>
<tspan x="10" y="1082">  │   │ │ │ ├─┬ commoner@0.10.8 </tspan>
<tspan x="10" y="1098">  │   │ │ │ │ ├─┬ commander@2.9.0 </tspan>
<tspan x="10" y="1114">  │   │ │ │ │ │ └── graceful-readlink@1.0.1 </tspan>
<tspan x="10" y="1130">  │   │ │ │ │ ├─┬ detective@4.5.0 </tspan>
<tspan x="10" y="1146">  │   │ │ │ │ │ ├── acorn@4.0.11 </tspan>
<tspan x="10" y="1162">  │   │ │ │ │ │ └── defined@1.0.0 </tspan>
<tspan x="10" y="1178">  │   │ │ │ │ ├─┬ glob@5.0.15 </tspan>
<tspan x="10" y="1194">  │   │ │ │ │ │ ├─┬ inflight@1.0.6 </tspan>
<tspan x="10" y="1210">  │   │ │ │ │ │ │ └── wrappy@1.0.2 </tspan>
<tspan x="10" y="1226">  │   │ │ │ │ │ ├─┬ minimatch@3.0.3 </tspan>
<tspan x="10" y="1242">  │   │ │ │ │ │ │ └─┬ brace-expansion@1.1.7 </tspan>
<tspan x="10" y="1258">  │   │ │ │ │ │ │   ├── balanced-match@0.4.2 </tspan>
<tspan x="10" y="1274">  │   │ │ │ │ │ │   └── concat-map@0.0.1 </tspan>
<tspan x="10" y="1290">  │   │ │ │ │ │ ├── once@1.4.0 </tspan>
<tspan x="10" y="1306">  │   │ │ │ │ │ └── path-is-absolute@1.0.1 </tspan>
<tspan x="10" y="1322">  │   │ │ │ │ ├── graceful-fs@4.1.11 </tspan>
<tspan x="10" y="1338">  │   │ │ │ │ ├── iconv-lite@0.4.15 </tspan>
<tspan x="10" y="1354">  │   │ │ │ │ ├─┬ mkdirp@0.5.1 </tspan>
<tspan x="10" y="1370">  │   │ │ │ │ │ └── minimist@0.0.8 </tspan>
<tspan x="10" y="1386">  │   │ │ │ │ ├── q@1.5.0 </tspan>
<tspan x="10" y="1402">  │   │ │ │ │ └─┬ recast@0.11.23 </tspan>
<tspan x="10" y="1418">  │   │ │ │ │   ├── ast-types@0.9.6 </tspan>
<tspan x="10" y="1434">  │   │ │ │ │   └── source-map@0.5.6 </tspan>
<tspan x="10" y="1450">  │   │ │ │ ├─┬ defs@1.1.1 </tspan>
<tspan x="10" y="1466">  │   │ │ │ │ ├─┬ alter@0.2.0 </tspan>
<tspan x="10" y="1482">  │   │ │ │ │ │ └── stable@0.1.6 </tspan>
<tspan x="10" y="1498">  │   │ │ │ │ ├── ast-traverse@0.1.1 </tspan>
<tspan x="10" y="1514">  │   │ │ │ │ ├── breakable@1.0.0 </tspan>
<tspan x="10" y="1530">  │   │ │ │ │ ├── esprima-fb@15001.1001.0-dev-harmony-fb </tspan>
<tspan x="10" y="1546">  │   │ │ │ │ ├── simple-fmt@0.1.0 </tspan>
<tspan x="10" y="1562">  │   │ │ │ │ ├── simple-is@0.2.0 </tspan>
<tspan x="10" y="1578">  │   │ │ │ │ ├── stringmap@0.2.2 </tspan>
<tspan x="10" y="1594">  │   │ │ │ │ ├── stringset@0.2.1 </tspan>
<tspan x="10" y="1610">  │   │ │ │ │ ├── tryor@0.1.2 </tspan>
<tspan x="10" y="1626">  │   │ │ │ │ └─┬ yargs@3.27.0 </tspan>
<tspan x="10" y="1642">  │   │ │ │ │   ├── camelcase@1.2.1 </tspan>
<tspan x="10" y="1658">  │   │ │ │ │   ├─┬ cliui@2.1.0 </tspan>
<tspan x="10" y="1674">  │   │ │ │ │   │ ├─┬ center-align@0.1.3 </tspan>
<tspan x="10" y="1690">  │   │ │ │ │   │ │ ├─┬ align-text@0.1.4 </tspan>
<tspan x="10" y="1706">  │   │ │ │ │   │ │ │ ├─┬ kind-of@3.1.0 </tspan>
<tspan x="10" y="1722">  │   │ │ │ │   │ │ │ │ └── is-buffer@1.1.5 </tspan>
<tspan x="10" y="1738">  │   │ │ │ │   │ │ │ ├── longest@1.0.1 </tspan>
<tspan x="10" y="1754">  │   │ │ │ │   │ │ │ └── repeat-string@1.6.1 </tspan>
<tspan x="10" y="1770">  │   │ │ │ │   │ │ └── lazy-cache@1.0.4 </tspan>
<tspan x="10" y="1786">  │   │ │ │ │   │ ├── right-align@0.1.3 </tspan>
<tspan x="10" y="1802">  │   │ │ │ │   │ └── wordwrap@0.0.2 </tspan>
<tspan x="10" y="1818">  │   │ │ │ │   ├── decamelize@1.2.0 </tspan>
<tspan x="10" y="1834">  │   │ │ │ │   ├─┬ os-locale@1.4.0 </tspan>
<tspan x="10" y="1850">  │   │ │ │ │   │ └─┬ lcid@1.0.0 </tspan>
<tspan x="10" y="1866">  │   │ │ │ │   │   └── invert-kv@1.0.0 </tspan>
<tspan x="10" y="1882">  │   │ │ │ │   ├── window-size@0.1.4 </tspan>
<tspan x="10" y="1898">  │   │ │ │ │   └── y18n@3.2.1 </tspan>
<tspan x="10" y="1914">  │   │ │ │ ├── esprima-fb@15001.1001.0-dev-harmony-fb </tspan>
<tspan x="10" y="1930">  │   │ │ │ ├── private@0.1.7 </tspan>
<tspan x="10" y="1946">  │   │ │ │ ├─┬ recast@0.10.33 </tspan>
<tspan x="10" y="1962">  │   │ │ │ │ ├── ast-types@0.8.12 </tspan>
<tspan x="10" y="1978">  │   │ │ │ │ ├── esprima-fb@15001.1001.0-dev-harmony-fb </tspan>
<tspan x="10" y="1994">  │   │ │ │ │ └── source-map@0.5.6 </tspan>
<tspan x="10" y="2010">  │   │ │ │ ├── regenerator-runtime@0.9.6 </tspan>
<tspan x="10" y="2026">  │   │ │ │ └── through@2.3.8 </tspan>
<tspan x="10" y="2042">  │   │ │ └── thunkify@2.1.2 </tspan>
<tspan x="10" y="2058">  │   │ └─┬ stream-to-buffer@0.1.0 </tspan>
<tspan x="10" y="2074">  │   │   └── stream-to@0.2.2 </tspan>
<tspan x="10" y="2090">  │   └─┬ socks-proxy-agent@2.0.0 </tspan>
<tspan x="10" y="2106">  │     └─┬ socks@1.1.10 </tspan>
<tspan x="10" y="2122">  │       ├── ip@1.1.5 </tspan>
<tspan x="10" y="2138">  │       └── smart-buffer@1.1.15 </tspan>
<tspan x="10" y="2154">  └── uuid@3.0.1</tspan>
</text>
</svg>
